<svg width="44" height="44" viewBox="0 0 44 44" xmlns="http://www.w3.org/2000/svg">
    <g fill="none" fill-rule="evenodd">
        <path d="M30.556 17.111C37.98 17.111 44 23.131 44 30.556 44 37.98 37.98 44 30.556 44 23.13 44 17.11 37.98 17.11 30.556c0-7.426 6.02-13.445 13.445-13.445zM13.444 0C20.87 0 26.89 6.02 26.89 13.444c0 .567-.035 1.126-.103 1.675a15.909 15.909 0 0 0-11.669 11.665c-.547.07-1.106.105-1.673.105C6.02 26.889 0 20.869 0 13.444 0 6.02 6.02 0 13.444 0z" fill="#31ADFF" fill-rule="nonzero"/>
        <path opacity=".55" d="M22.34 22.34h16.432v16.432H22.34z"/>
        <g fill="#FFF" fill-rule="nonzero">
            <path d="m32.405 33.077-1.6-.4-.065-.254c.59-.087 1.16-.27 1.69-.542a.293.293 0 0 0 .03-.48c-.007-.005-.747-.628-.747-2.775 0-1.903-.458-2.867-1.364-2.867h-.092a1.45 1.45 0 0 0-1.195-.432c-.83 0-2.653.83-2.653 3.296 0 2.148-.738 2.77-.742 2.774a.29.29 0 0 0 .025.48c.53.276 1.101.46 1.692.546l-.064.255-1.601.4a2.485 2.485 0 0 0-1.886 2.415.29.29 0 0 0 .29.291H34a.29.29 0 0 0 .29-.292 2.485 2.485 0 0 0-1.885-2.415z"/>
            <path d="m32.626 32.523.903.224a2.734 2.734 0 0 1 2.074 2.656.964.964 0 0 1-.008.198.243.243 0 0 1-.13.18h2.017c.16 0 .291-.13.291-.291a2.484 2.484 0 0 0-1.886-2.413l-1.601-.4-.117-.474a3.045 3.045 0 0 0 .814-1.614.722.722 0 0 0 .473-.59l.108-.858a.72.72 0 0 0-.407-.74l.035-.726.14-.141a1.06 1.06 0 0 0 .032-1.432 1.875 1.875 0 0 0-1.687-.775h-1.108c-.247 0-.494.036-.731.106.615.357.93 1.354.93 2.997 0 2.362.814 3.047.822 3.054a.323.323 0 0 1-.033.527c-.31.163-.636.292-.974.385l.043.127z"/>
        </g>
        <g>
            <path opacity=".55" d="M5.228 5.228H21.66V21.66H5.228z"/>
            <path d="M11.95 8.216a1.45 1.45 0 0 1 1.196.432h.092c.906 0 1.364.964 1.364 2.866 0 2.148.74 2.77.747 2.777a.293.293 0 0 1-.03.478c-.53.273-1.1.456-1.69.543l.064.254 1.6.4a2.485 2.485 0 0 1 1.886 2.415.29.29 0 0 1-.29.292H7.012a.293.293 0 0 1-.29-.29 2.485 2.485 0 0 1 1.884-2.415l1.602-.4.064-.256a5.307 5.307 0 0 1-1.692-.546.29.29 0 0 1-.025-.48c.004-.004.742-.626.742-2.774 0-2.466 1.822-3.296 2.653-3.296zm4.616 0a1.875 1.875 0 0 1 1.687.775 1.06 1.06 0 0 1-.031 1.431l-.141.142-.036.726a.72.72 0 0 1 .408.74l-.108.859a.722.722 0 0 1-.473.59 3.045 3.045 0 0 1-.814 1.613l.117.474 1.6.4a2.484 2.484 0 0 1 1.875 2.168c-.219.172-.43.35-.638.535h-1.657a.243.243 0 0 0 .129-.18.964.964 0 0 0 .008-.197 2.734 2.734 0 0 0-2.074-2.656l-.903-.224-.043-.127c.337-.093.664-.222.974-.386a.323.323 0 0 0 .033-.526l-.038-.036c-.16-.168-.783-.951-.783-3.018 0-1.643-.316-2.64-.931-2.997.237-.07.484-.106.731-.106h1.108z" fill="#FFF" fill-rule="nonzero"/>
        </g>
    </g>
</svg>
