<svg width="26" height="26" viewBox="0 0 26 26" xmlns="http://www.w3.org/2000/svg">
    <g fill="none" fill-rule="evenodd">
        <path d="M0 0h26v26H0z"/>
        <path d="m17.388 10.208-1.596 1.595 2.792 2.792a2.82 2.82 0 0 1 .127 3.854l-.127.135a2.82 2.82 0 0 1-3.853.127l-.136-.127-2.792-2.792-1.595 1.596L13 20.18a5.077 5.077 0 0 0 7.007.165l.173-.165a5.077 5.077 0 0 0 .165-7.007L20.18 13l-2.792-2.792zM13 5.82a5.077 5.077 0 0 0-7.345 7.007L5.82 13l2.792 2.792 1.596-1.595-2.792-2.792a2.82 2.82 0 0 1-.127-3.854l.127-.135a2.82 2.82 0 0 1 3.853-.127l.136.127 2.792 2.792 1.595-1.596L13 5.82zm-2.393 3.191L9.01 10.607l6.382 6.382 1.596-1.596-6.382-6.382z" fill="#8E8E8E" fill-rule="nonzero"/>
    </g>
</svg>
