<svg width="44" height="44" viewBox="0 0 44 44" xmlns="http://www.w3.org/2000/svg">
    <g fill="none" fill-rule="evenodd">
        <circle fill="#FF8700" fill-rule="nonzero" cx="22" cy="22" r="22"/>
        <path d="M24.962 22.672c-.204.349-.46.665-.758.938.077.478.432 1.736 1.193 2.054l3.236 1.078c.756.3 1.285.992 1.377 1.8a.357.357 0 0 1 .011.088v1.751a.365.365 0 0 1-.365.365H14.344a.365.365 0 0 1-.365-.361v-1.751c0-.028.004-.057.011-.084.092-.808.621-1.5 1.377-1.8l3.236-1.078c.761-.318 1.116-1.576 1.193-2.054a3.037 3.037 0 0 1-1.077-1.983c0-.258-.077-.365-.117-.384a.311.311 0 0 1-.223-.209 5.48 5.48 0 0 1-.39-1.592c0-.03.004-.06.011-.088a.94.94 0 0 1 .354-.531v-1.935A3.8 3.8 0 0 1 22 13.25c2.231 0 2.838 1.144 2.909 1.71.563.475.841 1.207.736 1.936v1.933a.94.94 0 0 1 .354.531.357.357 0 0 1 .011.088 5.45 5.45 0 0 1-.391 1.594.367.367 0 0 1-.25.219.588.588 0 0 0-.088.375 2.116 2.116 0 0 1-.32 1.035" fill="#FFF"/>
    </g>
</svg>
