<svg width="44" height="44" viewBox="0 0 44 44" xmlns="http://www.w3.org/2000/svg">
    <g fill="none" fill-rule="evenodd">
        <circle fill="#FF8700" fill-rule="nonzero" cx="22" cy="22" r="22"/>
        <g fill="#FFF">
            <path d="m24.582 26.25-2.62-.653-.105-.417a8.898 8.898 0 0 0 2.766-.887.48.48 0 0 0 .05-.784c-.013-.01-1.223-1.029-1.223-4.543 0-3.113-.75-4.69-2.232-4.69h-.151a2.374 2.374 0 0 0-1.956-.707c-1.359 0-4.34 1.358-4.34 5.394 0 3.514-1.209 4.533-1.215 4.538a.475.475 0 0 0 .04.787 8.684 8.684 0 0 0 2.77.892l-.105.418-2.62.655a4.066 4.066 0 0 0-3.085 3.952.473.473 0 0 0 .475.475h16.16a.475.475 0 0 0 .476-.478 4.066 4.066 0 0 0-3.085-3.951z"/>
            <path d="m24.944 25.344 1.477.367a4.475 4.475 0 0 1 3.394 4.346c.007.108.002.217-.013.324a.397.397 0 0 1-.212.293h3.3a.475.475 0 0 0 .476-.475 4.065 4.065 0 0 0-3.086-3.948l-2.62-.654-.191-.776A4.983 4.983 0 0 0 28.8 22.18a1.18 1.18 0 0 0 .774-.965l.176-1.405a1.178 1.178 0 0 0-.667-1.21l.058-1.188.23-.232c.623-.65.645-1.666.052-2.342a3.068 3.068 0 0 0-2.76-1.269H24.85c-.405 0-.808.059-1.197.174 1.007.584 1.523 2.216 1.523 4.903 0 3.866 1.331 4.987 1.344 4.998a.528.528 0 0 1-.053.862 7.914 7.914 0 0 1-1.595.63l.07.208z" fill-rule="nonzero"/>
        </g>
    </g>
</svg>
