<svg width="30" height="30" viewBox="0 0 30 30" xmlns="http://www.w3.org/2000/svg">
    <g fill="none" fill-rule="evenodd">
        <path opacity=".55" d="M0 30V0h30v30z"/>
        <path d="M18.836 16.179c-.234.41-.554.792-.886 1.097.09.558.505 2.03 1.394 2.402l3.783 1.26c1.039.347 1.387 1.218 1.61 2.108a.417.417 0 0 1 .012.103v2.047c0 .236-.19.427-.426.427H6.426a.426.426 0 0 1-.427-.427V23.15c0-.035.005-.07.013-.103.223-.89.571-1.76 1.61-2.108l3.783-1.26c.888-.372 1.304-1.844 1.394-2.402-.652-.6-1.26-1.5-1.26-2.31 0-.301-.09-.425-.137-.448-.133-.034-.208-.118-.26-.245-.045-.117-.455-1.163-.455-1.864 0-.035.004-.07.013-.103.047-.187.177-.46.413-.62v-2.26c0-1.78 1.621-4.263 4.261-4.263 2.608 0 3.317 1.338 3.401 2 .441.327.86.89.86 2.263v2.26c.237.16.367.433.414.62a.417.417 0 0 1 .013.103c0 .701-.41 1.747-.457 1.864a.43.43 0 0 1-.292.256c-.014.012-.103.136-.103.438 0 .37-.127.777-.375 1.21" fill="#BFBFBF"/>
    </g>
</svg>
