<svg width="26" height="26" viewBox="0 0 26 26" xmlns="http://www.w3.org/2000/svg">
    <g fill="none" fill-rule="evenodd">
        <path d="M0 0h26v26H0z"/>
        <g fill="#8E8E8E" fill-rule="nonzero">
            <path d="M4.542 21.458a.713.713 0 0 1 0-1.007L20.45 4.54a.712.712 0 1 1 1.008 1.008L5.548 21.46a.71.71 0 0 1-1.006 0zM18.026 10.845 20.18 13l.165.173a5.077 5.077 0 0 1-.165 7.007l-.173.165A5.077 5.077 0 0 1 13 20.18l-2.155-2.154 1.596-1.596 2.154 2.154.136.127a2.82 2.82 0 0 0 3.853-.127l.127-.135a2.82 2.82 0 0 0-.127-3.854l-2.154-2.154 1.596-1.596zm-2.793 2.793 1.756 1.755-1.596 1.596-1.755-1.756 1.595-1.595zM5.82 5.82a5.077 5.077 0 0 1 7.18 0l2.155 2.154-1.596 1.596-2.154-2.154-.136-.127a2.82 2.82 0 0 0-3.853.127l-.127.135a2.82 2.82 0 0 0 .127 3.854l2.154 2.154-1.596 1.596L5.82 13l-.165-.173A5.077 5.077 0 0 1 5.82 5.82zm4.787 3.191 1.755 1.756-1.595 1.595-1.756-1.755 1.596-1.596z"/>
        </g>
    </g>
</svg>
