<svg width="30" height="30" viewBox="0 0 30 30" xmlns="http://www.w3.org/2000/svg">
    <g fill="none" fill-rule="evenodd">
        <path opacity=".55" d="M0 30V0h30v30z"/>
        <g fill="#BFBFBF">
            <path d="M17.756 19.341 15 18.653l-.11-.443c1.887-.337 2.865-.907 2.91-.933a.502.502 0 0 0 .052-.824c-.013-.01-1.285-1.082-1.285-4.779 0-3.275-.79-4.935-2.348-4.935h-.166C13.524 6.238 13.085 6 12.001 6c-1.43 0-4.565 1.429-4.565 5.674 0 3.697-1.272 4.769-1.278 4.774a.498.498 0 0 0 .042.828c.044.027 1.014.6 2.913.937l-.11.44-2.756.689A4.277 4.277 0 0 0 3.001 23.5a.498.498 0 0 0 .5.5l17-.003a.5.5 0 0 0 .5-.5 4.278 4.278 0 0 0-3.245-4.156z"/>
            <path d="m18.135 18.385 1.554.388a4.706 4.706 0 0 1 3.57 4.571c0 .104.011.195-.014.341-.03.175-.118.239-.222.309h3.476a.5.5 0 0 0 .5-.5 4.275 4.275 0 0 0-3.244-4.155l-2.756-.688-.203-.817a5.241 5.241 0 0 0 1.401-2.778c.43-.153.755-.538.814-1.013l.185-1.478a1.24 1.24 0 0 0-.701-1.273l.061-1.25.243-.244c.45-.478.823-1.292.055-2.463C22.273 6.449 21.296 6 19.945 6h-1.907c-.471 0-.88.074-1.259.183 1.059.615 1.602 2.33 1.602 5.157 0 4.066 1.4 5.245 1.414 5.256a.556.556 0 0 1-.057.907c-.036.02-.602.345-1.678.664l.075.218z"/>
        </g>
    </g>
</svg>
