<svg width="30" height="30" viewBox="0 0 30 30" xmlns="http://www.w3.org/2000/svg">
    <g fill="none" fill-rule="evenodd">
        <path d="M0 30V0h30v30z"/>
        <path d="M14.673 14.204a2.546 2.546 0 1 1 0-5.093 2.546 2.546 0 0 1 0 5.093zM14.655 4C10.47 4 7 7.47 7 11.655c0 2.45 2.45 6.634 4.49 9.696.205.307 2.654 3.777 2.756 3.879.102.102.204.204.409.204.204 0 .306-.102.408-.204.102-.102 2.45-3.572 2.756-3.879 2.041-3.062 4.49-7.246 4.49-9.696C22.31 7.47 18.84 4 14.656 4z" fill="#BFBFBF"/>
    </g>
</svg>
