<svg width="30" height="30" viewBox="0 0 30 30" xmlns="http://www.w3.org/2000/svg">
    <g fill="none" fill-rule="evenodd">
        <path d="M0 30V0h30v30z"/>
        <path d="m16.97 17.84-3.054-2.345V9.92a.938.938 0 0 1 1.875 0v4.65l2.32 1.782a.937.937 0 1 1-1.142 1.487zm-7.168 4.62a9.598 9.598 0 0 1-1.431-1.177 1.313 1.313 0 0 1 1.856-1.856c.318.318.667.604 1.037.853 3.169 2.124 7.472 1.276 9.596-1.891a6.873 6.873 0 0 0 1.04-5.19 6.868 6.868 0 0 0-2.932-4.405c-2.984-2.004-6.98-1.363-9.208 1.369l1.116.759a.47.47 0 0 1-.085.822l-5.146 2.123a.467.467 0 0 1-.645-.44l.079-5.566a.467.467 0 0 1 .732-.382l1.771 1.205c3.042-3.921 8.664-4.875 12.85-2.07a9.474 9.474 0 0 1 4.045 6.078 9.477 9.477 0 0 1-1.438 7.16 9.536 9.536 0 0 1-7.937 4.223 9.485 9.485 0 0 1-5.3-1.615z" fill="#BFBFBF"/>
    </g>
</svg>
