<?xml version="1.0" encoding="UTF-8"?>
<svg width="40px" height="40px" viewBox="0 0 40 40" version="1.1" xmlns="http://www.w3.org/2000/svg" xmlns:xlink="http://www.w3.org/1999/xlink">
    <title>[40] Mutual-aid Group</title>
    <g id="[40]-Mutual-aid-Group" stroke="none" stroke-width="1" fill="none" fill-rule="evenodd">
        <g id="Temporary-Supergroup">
            <path d="M27.7777778,15.5555556 C34.5279247,15.5555556 40,21.0276309 40,27.7777778 C40,34.5279247 34.5279247,40 27.7777778,40 C21.0276309,40 15.5555556,34.5279247 15.5555556,27.7777778 C15.5555556,21.0276309 21.0276309,15.5555556 27.7777778,15.5555556 Z M12.2222222,0 C18.9723691,0 24.4444444,5.47207528 24.4444444,12.2222222 C24.4444444,12.7376671 24.4125371,13.2456597 24.3505899,13.7443324 C19.125743,15.014418 15.014418,19.125743 13.7427768,24.3488456 C13.2456597,24.4125371 12.7376671,24.4444444 12.2222222,24.4444444 C5.47207528,24.4444444 0,18.9723691 0,12.2222222 C0,5.47207528 5.47207528,0 12.2222222,0 Z" id="Combined-Shape" fill="#54595F" fill-rule="nonzero"></path>
            <g id="Group-5" transform="translate(4.753087, 4.753087)">
                <g id="그룹_2331" transform="translate(15.555556, 15.555556)">
                    <rect id="사각형_2117" opacity="0.55" x="0" y="0" width="14.9382716" height="14.9382716"></rect>
                    <g id="그룹_4995" transform="translate(1.358020, 2.708539)" fill="#FFFFFF" fill-rule="nonzero">
                        <path d="M7.7923496,7.05294209 L6.33722613,6.68967048 L6.27883108,6.45812727 C6.8145777,6.37908586 7.3336952,6.21254617 7.81543601,5.96516431 C7.88954647,5.91988234 7.9369045,5.84129167 7.94231359,5.75461089 C7.94772269,5.66793011 7.91050252,5.58406154 7.84259651,5.52991739 C7.83580639,5.5244853 7.16358417,4.958189 7.16358417,3.0060285 C7.16358417,1.27658406 6.74667058,0.399979123 5.92370762,0.399979123 L5.83951009,0.399979123 C5.55698537,0.10905927 5.15631349,-0.0356834458 4.75309033,0.00750998697 C3.99802861,0.00750998697 2.3419175,0.761892703 2.3419175,3.00399147 C2.3419175,4.95615197 1.67037429,5.52244826 1.66697922,5.52516431 C1.59683364,5.57793199 1.55748406,5.66209883 1.56197607,5.74976098 C1.56646807,5.83742313 1.61421476,5.91712698 1.68938663,5.96244826 C2.17073862,6.21303607 2.69091993,6.38061434 3.22802861,6.45812727 L3.16963354,6.69034949 L1.71383108,7.05430011 C0.705797967,7.30500858 -0.00135694241,8.21080566 0,9.24954702 C-0.000122880935,9.31962111 0.0277437931,9.38684334 0.0774113232,9.43627542 C0.127053998,9.48562776 0.194139798,9.51343788 0.264139718,9.51368282 L9.24204096,9.51368282 C9.31233006,9.51368282 9.37972066,9.4856689 9.42929494,9.43583972 C9.47886924,9.38601054 9.50653814,9.31847717 9.50618368,9.248189 C9.50753761,8.20944763 8.8003827,7.30365056 7.7923496,7.05294209 Z" id="패스_8933"></path>
                        <path d="M7.99333724,6.54911492 L8.81426318,6.75281863 C9.92300467,7.02870287 10.7009196,8.02483731 10.6998805,9.16738653 C10.7035797,9.22746327 10.7010768,9.28776131 10.6924113,9.3473248 C10.6816829,9.41735228 10.6379866,9.47797138 10.5749422,9.51028777 L12.4082755,9.51028777 C12.5541537,9.51028777 12.6724121,9.39203013 12.6724121,9.24615197 C12.6730022,8.20788793 11.9656105,7.3029869 10.9579052,7.05294209 L9.50210268,6.68967048 L9.39617676,6.25849764 C9.78572708,5.8555765 10.0438101,5.34390912 10.1363002,4.79115197 C10.3690932,4.70785268 10.5352665,4.50072676 10.566115,4.25541122 L10.6638928,3.47454702 C10.6985848,3.19408188 10.5493637,2.9230198 10.2938311,2.8023248 L10.3257447,2.1423248 L10.454078,2.01331246 C10.799546,1.65267248 10.8119294,1.08775687 10.4825965,0.712324802 C10.1317275,0.222892868 9.54861657,-0.0450439161 8.94870762,0.00750998697 L7.94173231,0.00750998697 C7.71668434,0.00779363513 7.49283362,0.0402622782 7.27697922,0.10392974 C7.8364854,0.428497641 8.12302861,1.33497912 8.12302861,2.82812727 C8.12302861,4.97584332 8.86247306,5.59849764 8.86994219,5.60460876 C8.94437743,5.66430667 8.98512506,5.75647877 8.97918151,5.8517107 C8.97323796,5.94694262 8.92134601,6.03333297 8.84006564,6.08331246 C8.5582607,6.23185966 8.26114586,6.34933956 7.95395453,6.43368282 L7.99333724,6.54911492 Z" id="패스_8934"></path>
                    </g>
                </g>
                <g id="그룹_2331">
                    <rect id="사각형_2117" opacity="0.55" x="0" y="0" width="14.9382716" height="14.9382716"></rect>
                    <g id="그룹_4995" transform="translate(1.358019, 2.708539)" fill="#FFFFFF" fill-rule="nonzero">
                        <path d="M4.75309228,0.00750998697 C5.15631544,-0.0356834458 5.55698732,0.10905927 5.83951204,0.399979123 L5.83951204,0.399979123 L5.92370957,0.399979123 C6.74667253,0.399979123 7.16358612,1.27658406 7.16358612,3.0060285 C7.16358612,4.958189 7.83580834,5.5244853 7.84259846,5.52991739 C7.91050447,5.58406154 7.94772464,5.66793011 7.94231554,5.75461089 C7.93690645,5.84129167 7.88954842,5.91988234 7.81543796,5.96516431 C7.33369715,6.21254617 6.81457965,6.37908586 6.27883303,6.45812727 L6.27883303,6.45812727 L6.33722808,6.68967048 L7.79235155,7.05294209 C8.80038465,7.30365056 9.50753956,8.20944763 9.50618563,9.248189 C9.50654008,9.31847717 9.47887119,9.38601054 9.42929689,9.43583972 C9.37972261,9.4856689 9.31233201,9.51368282 9.24204291,9.51368282 L9.24204291,9.51368282 L0.264141667,9.51368282 C0.194141748,9.51343788 0.127055948,9.48562776 0.0774132727,9.43627542 C0.0277457425,9.38684334 -0.000120931463,9.31962111 1.94947097e-06,9.24954702 C-0.00135499294,8.21080566 0.705799917,7.30500858 1.71383303,7.05430011 L1.71383303,7.05430011 L3.16963549,6.69034949 L3.22803056,6.45812727 C2.69092188,6.38061434 2.17074057,6.21303607 1.68938858,5.96244826 C1.61421669,5.91712698 1.56647002,5.83742313 1.56197802,5.74976098 C1.55748601,5.66209883 1.59683559,5.57793199 1.66698117,5.52516431 C1.67037624,5.52244826 2.34191945,4.95615197 2.34191945,3.00399147 C2.34191945,0.761892703 3.99803056,0.00750998697 4.75309228,0.00750998697 Z M8.94870957,0.00750998697 C9.54861852,-0.0450439161 10.1317295,0.222892868 10.4825985,0.712324802 C10.8119313,1.08775687 10.799548,1.65267248 10.4540799,2.01331246 L10.4540799,2.01331246 L10.3257466,2.1423248 L10.293833,2.8023248 C10.5493657,2.9230198 10.6985867,3.19408188 10.6638947,3.47454702 L10.6638947,3.47454702 L10.566117,4.25541122 C10.5352684,4.50072676 10.3690951,4.70785268 10.1363022,4.79115197 C10.0438121,5.34390912 9.78572903,5.8555765 9.39617871,6.25849764 L9.39617871,6.25849764 L9.50210463,6.68967048 L10.9579071,7.05294209 C11.8929984,7.28496897 12.5694972,8.08087604 12.6616653,9.02397629 C12.4629634,9.18024861 12.2700904,9.34268492 12.0816243,9.50997649 L10.5749441,9.51028777 C10.6379885,9.47797138 10.6816848,9.41735228 10.6924133,9.3473248 C10.7010787,9.28776131 10.7035817,9.22746327 10.6998824,9.16738653 C10.7009215,8.02483731 9.92300662,7.02870287 8.81426513,6.75281863 L8.81426513,6.75281863 L7.99333919,6.54911492 L7.95395648,6.43368282 C8.26114781,6.34933956 8.55826265,6.23185966 8.84006759,6.08331246 C8.92134795,6.03333297 8.97323991,5.94694262 8.97918346,5.8517107 C8.98512701,5.75647877 8.94437938,5.66430667 8.86994414,5.60460876 L8.83570574,5.57164218 C8.68916771,5.41900497 8.12303056,4.70737881 8.12303056,2.82812727 C8.12303056,1.33497912 7.83648735,0.428497641 7.27698117,0.10392974 C7.49283557,0.0402622782 7.71668629,0.00779363513 7.94173426,0.00750998697 L7.94173426,0.00750998697 L8.94870957,0.00750998697 Z" id="Combined-Shape"></path>
                    </g>
                </g>
            </g>
        </g>
    </g>
</svg>