<svg width="44" height="44" viewBox="0 0 44 44" xmlns="http://www.w3.org/2000/svg">
    <g fill="none" fill-rule="evenodd">
        <path d="M22 0c12.15 0 22 9.85 22 22s-9.85 22-22 22S0 34.15 0 22 9.85 0 22 0z" fill="#FF8700" fill-rule="nonzero"/>
        <path d="m29.885 19.688-6.892-6.203a1.89 1.89 0 0 0-2.528 0l-6.892 6.203c-.362.322-.57.782-.573 1.267v8.851a1.794 1.794 0 0 0 1.833 1.746h4.71a.434.434 0 0 0 .436-.437v-6.11c0-.242.195-.437.436-.437h2.62c.24 0 .436.195.436.436v6.111c0 .241.195.437.436.437h4.71a1.793 1.793 0 0 0 1.833-1.746v-8.851a1.711 1.711 0 0 0-.574-1.267" fill="#FFF"/>
    </g>
</svg>
