<svg width="52" height="52" viewBox="0 0 52 52" xmlns="http://www.w3.org/2000/svg">
    <g fill="none" fill-rule="evenodd">
        <path d="M0 26C0 11.64 11.64 0 26 0s26 11.64 26 26-11.64 26-26 26S0 40.36 0 26z" fill="#164400" />
        <path d="M12 40V12h28v28z"/>
        <path d="M16.222 19.573c-.675 0-1.222-.576-1.222-1.287 0-.71.547-1.286 1.222-1.286h19.556c.675 0 1.222.575 1.222 1.286 0 .711-.547 1.287-1.222 1.287H16.222zm0 7.713C15.547 27.286 15 26.71 15 26c0-.71.547-1.285 1.222-1.285h19.556c.675 0 1.222.576 1.222 1.285 0 .71-.547 1.286-1.222 1.286H16.222zm0 7.714C15.547 35 15 34.425 15 33.715s.547-1.287 1.222-1.287h19.556c.675 0 1.222.577 1.222 1.287S36.453 35 35.778 35H16.222z" fill="#B2B2B2"/>
    </g>
</svg>
