<?xml version="1.0" encoding="UTF-8"?>
<svg width="40px" height="40px" viewBox="0 0 40 40" version="1.1" xmlns="http://www.w3.org/2000/svg" xmlns:xlink="http://www.w3.org/1999/xlink">
    <title>Call screen icon_6</title>
    <g id="iOS-v4.0-221027-SJK-(Call-screen)" stroke="none" stroke-width="1" fill="none" fill-rule="evenodd">
        <g id="Call-screen" transform="translate(-288.000000, -458.000000)">
            <g id="call-screen-icon" transform="translate(288.000000, 457.999302)">
                <rect id="Container" x="0" y="0.000697855066" width="40" height="40"></rect>
                <path d="M25.8005263,0.000697855066 C26.9296856,0.0306682935 27.8323435,0.954043619 27.8349332,2.08580425 L27.8441406,6.10030723 L29.6624216,6.10141135 C30.7988152,6.13019712 31.7170527,7.02111959 31.7947513,8.14046678 L31.8000781,8.29446137 L31.7992873,35.503907 C31.7691919,36.6918227 30.7967753,37.6413229 29.6062477,37.6413229 L11.1339999,37.6406115 C9.94608357,37.6105161 8.99658121,36.6381003 8.99658121,35.4475787 L8.99634692,21.1663072 L7.94159,21.1438857 L7.74459444,21.1284287 C6.75762471,21.0018112 6.00175616,20.1578717 6.00175616,19.1447099 L6.00275447,14.84608 C6.03195439,13.7848466 6.88759259,12.9294051 7.94977287,12.9024075 L8.99634692,12.8803072 L8.99729467,8.23814885 C9.02608114,7.10185621 9.91702109,6.18371462 11.0363353,6.10602423 L11.1903251,6.10069793 L23.6771406,6.10030723 L23.6679857,2.02545248 C23.6951357,0.915241365 24.5930508,0.020986334 25.7204121,-1.42108547e-14 Z M20.4218707,24.1319238 C19.6148521,24.1319238 18.8407515,24.3988986 18.2149569,24.8896 C18.0153787,25.0460954 17.8902408,25.2721065 17.8603798,25.5188971 C17.8305195,25.7656887 17.8981423,26.0150236 18.0546365,26.2146013 C18.2152095,26.4193808 18.4472451,26.5440092 18.7023588,26.5664351 C18.9096339,26.5846551 19.1204355,26.5345232 19.309484,26.4203361 L19.4201004,26.3441716 C19.7099718,26.1302435 20.061703,26.0196722 20.4760123,26.0202133 C20.8427445,26.030929 21.1874085,26.1578627 21.4942991,26.3975521 C21.6974111,26.5430256 21.9415203,26.6007779 22.1807702,26.566404 C22.419644,26.532083 22.6371709,26.4083669 22.7891079,26.2146005 C22.9456028,26.015023 23.0132257,25.7656878 22.9833646,25.5188964 C22.9535036,25.2721054 22.8283654,25.0460937 22.6287875,24.8895993 C22.0029933,24.3988977 21.2288919,24.1319238 20.4218707,24.1319238 Z M20.4218722,20.5974304 C18.6784978,20.5974304 17.0119655,21.187337 15.6812267,22.2672643 C15.4842969,22.4270773 15.36296,22.6551517 15.3372346,22.902408 C15.3115091,23.1496643 15.3832966,23.3978321 15.5431105,23.5947621 C15.7029243,23.791692 15.9309987,23.9130287 16.1782548,23.9387542 C16.4255119,23.9644789 16.6736794,23.8926917 16.870609,23.7328782 C17.8654684,22.9255256 19.112405,22.4849297 20.422306,22.4849297 C21.7318324,22.4849297 22.9787525,22.9255593 23.9735708,23.7328783 C24.1705011,23.8926918 24.4186679,23.9644789 24.6659244,23.9387542 C24.9131807,23.9130287 25.1412545,23.7916921 25.3010684,23.5947621 C25.4608817,23.3978328 25.532669,23.1496656 25.5069451,22.9024087 C25.4812196,22.655152 25.3598823,22.4270775 25.1629521,22.2672642 C23.8321702,21.1873016 22.1656247,20.5974304 20.4218722,20.5974304 Z M20.4218722,17.0006979 C17.7411922,17.0006979 15.165382,17.8192783 13.0159753,19.3431736 C12.8090804,19.4898592 12.6731863,19.7095704 12.6314553,19.9546338 C12.5897244,20.1996971 12.6452409,20.4520028 12.7919258,20.6588978 C12.9386115,20.8657927 13.1583227,21.0016869 13.4033861,21.0434178 C13.6484494,21.0851487 13.9007551,21.0296323 14.1076501,20.8829473 C15.9383282,19.5850254 18.1329452,18.8881986 20.4218722,18.8881986 C22.7108004,18.8881986 24.9054175,19.5850253 26.7360956,20.8829473 C26.9429899,21.0296323 27.1952957,21.0851487 27.4403596,21.0434178 C27.6854231,21.0016867 27.9051355,20.8657922 28.05182,20.6588978 C28.1985044,20.4520035 28.2540207,20.1996973 28.2122905,19.9546341 C28.1705594,19.7095698 28.0346648,19.489858 27.8277696,19.3431734 C25.6783647,17.8192784 23.1025538,17.0006979 20.4218722,17.0006979 Z" id="Combined-Shape" fill="#FFFFFF" fill-rule="nonzero"></path>
            </g>
        </g>
    </g>
</svg>